#	                Vertices: 8
#	                  Points: 0
#	                   Lines: 0
#	                   Faces: 6
#	               Materials: 1

o 1

asdf # Vertex list

v -0.5 -0.5 0.5 -3.6e-4
v -0.5 -0.5 -0.5
v -0.5 0.5 -0.5
v -0.5 0.5 0.5
v 0.5 -0.5 0.5
v 0.5 -0.5 -0.5
v 0.5 0.5 -0.5
v 0.5 0.5 0.5

vt -0.5 -0.5 0.5
vt -0.5 -0.5 -0.5
vt -0.5 0.5 -0.5
vt -0.5 0.5 0.5
vt 0.5 -0.5 0.5
vt 0.5 -0.5 -0.5
vt 0.5 0.5 -0.5
vt 0.5 0.5 0.5

vn -0.5 -0.5 0.5
vn -0.5 -0.5 -0.5
vn -0.5 0.5 -0.5
vn -0.5 0.5 0.5
vn 0.5 -0.5 0.5
vn 0.5 -0.5 -0.5
vn 0.5 0.5 -0.5
vn 0.5 0.5 0.5

# Point/Line/Face list

usemtl Default
f 4 3 2 1
f 4/4 3/3 2/2 1/1
f 4//4 3//3 2//2 1//1
f 4/4/4 3/3/3 2/2/2 1/1/1

# End of file
